<svg xmlns="http://www.w3.org/2000/svg" viewBox="0 0 960 260" font-family="Segoe UI, PingFang SC, sans-serif">
  <defs>
    <filter id="shadow"><feDropShadow dx="0" dy="4" stdDeviation="8" flood-opacity="0.08"/></filter>
  </defs>
  <rect width="960" height="260" fill="#F8FAFC" rx="12" filter="url(#shadow)"/>
  <text x="480" y="35" text-anchor="middle" font-size="20" font-weight="700" fill="#1E293B">STT 方案选型指南</text>
  <text x="480" y="56" text-anchor="middle" font-size="12" fill="#64748B">按场景·精度·延迟·语言 四维选择</text>

  <rect x="20" y="80" width="220" height="70" rx="8" fill="white"/>
  <rect x="20" y="80" width="220" height="4" rx="2" fill="#2563EB"/>
  <text x="130" y="108" text-anchor="middle" font-size="12" font-weight="700" fill="#2563EB">离线·最高精度</text>
  <text x="130" y="128" text-anchor="middle" font-size="10" fill="#64748B">Whisper large-v3 · WER 3.2%</text>
  <text x="130" y="144" text-anchor="middle" font-size="9" fill="#94A3B8">faster-whisper 提速4倍</text>

  <rect x="255" y="80" width="220" height="70" rx="8" fill="white"/>
  <rect x="255" y="80" width="220" height="4" rx="2" fill="#D97706"/>
  <text x="365" y="108" text-anchor="middle" font-size="12" font-weight="700" fill="#D97706">实时·低延迟</text>
  <text x="365" y="128" text-anchor="middle" font-size="10" fill="#64748B">DeepGram · &lt;300ms 流式</text>
  <text x="365" y="144" text-anchor="middle" font-size="9" fill="#94A3B8">Whisper Cloud · 2-5s</text>

  <rect x="490" y="80" width="220" height="70" rx="8" fill="white"/>
  <rect x="490" y="80" width="220" height="4" rx="2" fill="#059669"/>
  <text x="600" y="108" text-anchor="middle" font-size="12" font-weight="700" fill="#059669">中文会议</text>
  <text x="600" y="128" text-anchor="middle" font-size="10" fill="#64748B">通义听悟·去杂·纪要</text>
  <text x="600" y="144" text-anchor="middle" font-size="9" fill="#94A3B8">PaddleSpeech · 本地</text>

  <rect x="725" y="80" width="215" height="70" rx="8" fill="white"/>
  <rect x="725" y="80" width="215" height="4" rx="2" fill="#8B5CF6"/>
  <text x="832" y="108" text-anchor="middle" font-size="12" font-weight="700" fill="#8B5CF6">隐私·本地部署</text>
  <text x="832" y="128" text-anchor="middle" font-size="10" fill="#64748B">Whisper · 数据不离本地</text>
  <text x="832" y="144" text-anchor="middle" font-size="9" fill="#94A3B8">PaddleSpeech · RTX3090</text>

  <!-- 底部 -->
  <rect x="20" y="170" width="920" height="75" rx="8" fill="white" filter="url(#shadow)"/>
  <text x="480" y="198" text-anchor="middle" font-size="12" font-weight="700" fill="#1E293B">TTS 方案选型</text>

  <text x="160" y="228" text-anchor="middle" font-size="10" fill="#334155">最高自然度 → ElevenLabs</text>
  <text x="430" y="228" text-anchor="middle" font-size="10" fill="#334155">实时对话 → OpenAI Realtime API</text>
  <text x="720" y="228" text-anchor="middle" font-size="10" fill="#334155">中文克隆 → Fish Audio · GPT-SoVITS</text>
  <text x="480" y="244" text-anchor="middle" font-size="9" fill="#64748B">快速集成: OpenAI TTS · 本地开源: PaddleSpeech · 会议记录: 通义听悟</text>
</svg>