<svg xmlns="http://www.w3.org/2000/svg" viewBox="0 0 960 260" font-family="Segoe UI, PingFang SC, sans-serif">
  <defs>
    <filter id="shadow"><feDropShadow dx="0" dy="4" stdDeviation="8" flood-opacity="0.08"/></filter>
  </defs>
  <rect width="960" height="260" fill="#F8FAFC" rx="12" filter="url(#shadow)"/>
  <text x="480" y="35" text-anchor="middle" font-size="20" font-weight="700" fill="#1E293B">多模态内容安全攻击面</text>
  <text x="480" y="56" text-anchor="middle" font-size="12" fill="#64748B">四种纯文本安全没有的新威胁</text>

  <rect x="20" y="80" width="220" height="65" rx="8" fill="white"/>
  <rect x="20" y="80" width="220" height="4" rx="2" fill="#EF4444"/>
  <text x="130" y="108" text-anchor="middle" font-size="12" font-weight="700" fill="#EF4444">图片文字注入</text>
  <text x="130" y="128" text-anchor="middle" font-size="10" fill="#64748B">白底黑字写指令 → VLM执行</text>

  <rect x="255" y="80" width="220" height="65" rx="8" fill="white"/>
  <rect x="255" y="80" width="220" height="4" rx="2" fill="#D97706"/>
  <text x="365" y="108" text-anchor="middle" font-size="12" font-weight="700" fill="#D97706">对抗性像素扰动</text>
  <text x="365" y="128" text-anchor="middle" font-size="10" fill="#64748B">人眼不可见·AI被操控</text>

  <rect x="490" y="80" width="220" height="65" rx="8" fill="white"/>
  <rect x="490" y="80" width="220" height="4" rx="2" fill="#8B5CF6"/>
  <text x="600" y="108" text-anchor="middle" font-size="12" font-weight="700" fill="#8B5CF6">多通道攻击</text>
  <text x="600" y="128" text-anchor="middle" font-size="10" fill="#64748B">图+文+音 同时施加冲突指令</text>

  <rect x="725" y="80" width="215" height="65" rx="8" fill="white"/>
  <rect x="725" y="80" width="215" height="4" rx="2" fill="#059669"/>
  <text x="832" y="108" text-anchor="middle" font-size="12" font-weight="700" fill="#059669">音频对抗样本</text>
  <text x="832" y="128" text-anchor="middle" font-size="10" fill="#64748B">人耳听不到·STT被误导</text>

  <!-- 底部防御 -->
  <rect x="20" y="160" width="920" height="85" rx="8" fill="white" filter="url(#shadow)"/>
  <text x="480" y="188" text-anchor="middle" font-size="12" font-weight="700" fill="#1E293B">四层防御体系</text>

  <rect x="40" y="205" width="190" height="30" rx="5" fill="#EF4444" opacity="0.08"/>
  <text x="135" y="225" text-anchor="middle" font-size="11" fill="#EF4444">输入过滤</text>
  <rect x="250" y="205" width="190" height="30" rx="5" fill="#D97706" opacity="0.08"/>
  <text x="345" y="225" text-anchor="middle" font-size="11" fill="#D97706">权限隔离</text>
  <rect x="460" y="205" width="190" height="30" rx="5" fill="#059669" opacity="0.08"/>
  <text x="555" y="225" text-anchor="middle" font-size="11" fill="#059669">输出过滤</text>
  <rect x="670" y="205" width="270" height="30" rx="5" fill="#2563EB" opacity="0.08"/>
  <text x="805" y="225" text-anchor="middle" font-size="11" fill="#2563EB">审计日志（核心·全量记录）</text>
</svg>